<svg width="668" height="446" viewBox="0 0 668 446" fill="none" xmlns="http://www.w3.org/2000/svg">
<g clip-path="url(#clip0_369_58)">
<path d="M60.3728 194.789C48.0058 204.558 68.2426 290.307 68.2426 290.307C68.2426 290.307 72.7396 421.101 82.2959 427.071C91.8521 433.041 113.213 426.528 121.645 425.443C130.077 424.357 122.769 343.493 110.402 313.643C98.0356 283.794 107.592 240.377 107.592 240.377L174.486 252.859C174.486 252.859 134.012 285.965 135.698 293.02C137.385 300.075 180.669 323.955 188.539 325.04C196.409 326.126 211.586 281.623 225.078 251.231C238.569 220.839 132.888 201.301 132.888 201.301L118.272 174.708C118.272 174.708 72.7397 185.02 60.3728 194.789Z" fill="#2F2E41"/>
<path d="M93.9463 429.323C93.9463 429.323 89.8671 443.107 93.9463 443.107C98.0254 443.107 105.504 447.045 117.061 445.732C128.619 444.419 125.22 430.636 117.061 428.666C108.903 426.697 110.943 410.944 110.943 410.944C108.223 405.693 95.3059 412.257 95.3059 412.257L93.9463 429.323Z" fill="#2F2E41"/>
<path d="M151.858 319.713C151.858 319.713 144.86 332.356 148.848 333.186C152.835 334.017 159.285 339.389 170.869 340.459C182.454 341.529 182.142 327.363 174.597 323.777C167.052 320.191 172.487 305.208 172.487 305.208C170.976 299.521 156.915 303.307 156.915 303.307L151.858 319.713Z" fill="#2F2E41"/>
<path d="M67.9616 77.2907C69.0858 79.4616 64.0266 106.597 64.0266 106.597L68.5237 114.195C68.5237 114.195 94.3818 104.427 90.4469 102.798C86.5119 101.17 87.0741 81.0897 87.0741 81.0897C87.0741 81.0897 66.8373 75.1198 67.9616 77.2907Z" fill="#FFB9B9"/>
<path d="M77.6943 85.6553C96.7296 85.6553 112.161 70.7572 112.161 52.3794C112.161 34.0016 96.7296 19.1035 77.6943 19.1035C58.6589 19.1035 43.2278 34.0016 43.2278 52.3794C43.2278 70.7572 58.6589 85.6553 77.6943 85.6553Z" fill="#2F2E41"/>
<path d="M75.3172 34.9972C83.1938 34.9972 89.5791 28.8324 89.5791 21.2278C89.5791 13.6232 83.1938 7.4585 75.3172 7.4585C67.4405 7.4585 61.0552 13.6232 61.0552 21.2278C61.0552 28.8324 67.4405 34.9972 75.3172 34.9972Z" fill="#2F2E41"/>
<path d="M81.5568 27.4643C82.0503 27.5137 82.5462 27.5386 83.0424 27.5387C84.9153 27.5387 86.7699 27.1826 88.5002 26.4906C90.2306 25.7986 91.8028 24.7844 93.1272 23.5058C94.4515 22.2272 95.5021 20.7092 96.2188 19.0387C96.9355 17.3681 97.3044 15.5776 97.3044 13.7694C97.3044 11.9611 96.9355 10.1706 96.2188 8.50005C95.5021 6.82947 94.4515 5.31155 93.1272 4.03295C91.8028 2.75435 90.2306 1.7401 88.5002 1.04813C86.7699 0.356155 84.9153 -5.38891e-08 83.0424 0C82.5462 0.000123207 82.0503 0.0249706 81.5568 0.0744453C85.0629 0.429107 88.3088 2.02487 90.6681 4.55384C93.0275 7.08281 94.3331 10.3658 94.3331 13.7694C94.3331 17.1729 93.0275 20.4559 90.6681 22.9849C88.3088 25.5139 85.0629 27.1096 81.5568 27.4643Z" fill="#2F2E41"/>
<path d="M78.642 91.4015C91.6812 91.4015 102.252 81.1963 102.252 68.6075C102.252 56.0187 91.6812 45.8135 78.642 45.8135C65.6028 45.8135 55.0325 56.0187 55.0325 68.6075C55.0325 81.1963 65.6028 91.4015 78.642 91.4015Z" fill="#FFB9B9"/>
<path d="M44.633 103.613C37.3253 105.241 24.9584 122.608 24.9584 122.608L44.633 141.603C44.633 141.603 58.6863 192.618 60.3727 194.789C71.4209 209.011 121.083 177.422 121.083 177.422C121.083 177.422 119.116 161.954 120.24 154.356C121.321 147.049 116.024 132.377 116.024 132.377C116.024 132.377 134.574 124.779 130.639 117.181C126.704 109.583 102.533 92.2156 92.4144 98.1855C82.296 104.155 62.0592 98.1855 62.0592 98.1855C62.0592 98.1855 51.9408 101.984 44.633 103.613Z" fill="#E6E6E6"/>
<path d="M188.258 212.97C188.258 212.97 220.299 239.563 228.169 234.136C236.039 228.708 197.814 209.713 197.814 209.713L188.258 212.97Z" fill="#FFB9B9"/>
<path d="M44.352 203.743C48.849 208.628 70.2101 196.145 67.4715 190.602C64.7329 185.059 47.7247 196.145 47.7247 196.145C47.7247 196.145 39.8549 198.859 44.352 203.743Z" fill="#FFB9B9"/>
<path d="M44.633 130.206L21.0235 172.537C21.0235 172.537 48.0058 194.246 51.3786 194.789C54.7514 195.331 44.633 209.442 44.633 209.442C44.633 209.442 14.2778 188.819 2.47306 178.507C-9.33172 168.196 24.9584 122.608 24.9584 122.608L35.0768 116.638L44.633 130.206Z" fill="#E6E6E6"/>
<path d="M113.213 128.577L140.758 169.824C140.758 169.824 182.918 215.412 188.539 217.583C194.16 219.753 200.906 209.442 200.906 209.442L150.314 150.286L131.202 117.18L123.894 114.467L113.213 128.577Z" fill="#E6E6E6"/>
<path d="M77.6942 55.2943C90.822 55.2943 101.464 49.1296 101.464 41.525C101.464 33.9204 90.822 27.7556 77.6942 27.7556C64.5664 27.7556 53.9242 33.9204 53.9242 41.525C53.9242 49.1296 64.5664 55.2943 77.6942 55.2943Z" fill="#2F2E41"/>
<path d="M144.377 338.614C143.598 338.615 142.851 338.914 142.3 339.446C141.749 339.978 141.439 340.699 141.438 341.451V438.211C141.439 438.963 141.749 439.684 142.3 440.216C142.851 440.748 143.598 441.047 144.377 441.048H486.115C486.894 441.047 487.641 440.747 488.191 440.216C488.742 439.684 489.052 438.963 489.053 438.211V341.451C489.052 340.699 488.742 339.978 488.191 339.446C487.641 338.914 486.894 338.615 486.115 338.614L144.377 338.614Z" fill="#E6E6E6"/>
<path d="M148.802 433.938H481.689V345.724H148.802V433.938Z" fill="white"/>
<path d="M439.671 415.638C439.031 415.637 438.398 415.758 437.806 415.994C437.215 416.23 436.678 416.576 436.225 417.012C435.773 417.449 435.414 417.967 435.169 418.537C434.924 419.108 434.798 419.719 434.798 420.337C434.798 420.955 434.924 421.566 435.169 422.137C435.414 422.707 435.773 423.225 436.225 423.662C436.678 424.098 437.215 424.444 437.806 424.68C438.398 424.916 439.031 425.037 439.671 425.036H459.141C460.431 425.036 461.67 424.541 462.582 423.66C463.495 422.779 464.008 421.583 464.008 420.337C464.008 419.091 463.495 417.895 462.582 417.014C461.67 416.133 460.431 415.638 459.141 415.638H439.671Z" fill="#6C63FF"/>
<path d="M464.008 406.522H239.253V407.759H464.008V406.522Z" fill="#E6E6E6"/>
<path d="M192.272 417.202C207.93 417.202 220.623 404.948 220.623 389.831C220.623 374.714 207.93 362.46 192.272 362.46C176.615 362.46 163.922 374.714 163.922 389.831C163.922 404.948 176.615 417.202 192.272 417.202Z" fill="#6C63FF"/>
<path d="M239.608 399.619L238.898 398.59L262.253 383.557L278.269 390.979L301.305 376.77L347.13 395.642L383.622 378.335L419.058 392.205L463.584 354.13L464.433 355.056L419.313 393.639L383.672 379.689L347.167 397.002L301.425 378.163L278.358 392.392L262.357 384.977L239.608 399.619Z" fill="#3F3D56"/>
<path d="M243.415 416.284C242.868 416.284 242.327 416.387 241.821 416.589C241.315 416.79 240.856 417.086 240.469 417.459C240.082 417.833 239.775 418.276 239.565 418.764C239.356 419.251 239.248 419.774 239.248 420.303C239.248 420.831 239.356 421.354 239.565 421.842C239.775 422.329 240.082 422.773 240.469 423.146C240.856 423.519 241.315 423.815 241.821 424.017C242.327 424.218 242.868 424.322 243.415 424.321H286.958C288.061 424.32 289.118 423.896 289.897 423.142C290.677 422.389 291.114 421.367 291.114 420.303C291.114 419.238 290.677 418.216 289.897 417.463C289.118 416.71 288.061 416.286 286.958 416.284H243.415Z" fill="#E6E6E6"/>
<path d="M203.1 377.586H207.53L198.312 386.393C196.702 387.925 194.532 388.784 192.271 388.784C190.01 388.784 187.84 387.925 186.23 386.393L177.013 377.586H181.443L188.445 384.276C189.465 385.247 190.84 385.791 192.272 385.791C193.704 385.791 195.078 385.247 196.098 384.276L203.1 377.586ZM181.387 402.076H176.957L186.231 393.215C187.841 391.682 190.011 390.823 192.272 390.823C194.533 390.823 196.704 391.682 198.314 393.215L207.588 402.076H203.158L196.098 395.331C195.078 394.361 193.704 393.816 192.272 393.816C190.84 393.816 189.465 394.361 188.445 395.331L181.387 402.076Z" fill="white"/>
<path d="M188.877 28.6843C188.098 28.6852 187.351 28.9844 186.8 29.5162C186.249 30.0481 185.94 30.7692 185.939 31.5213V128.281C185.94 129.033 186.249 129.754 186.8 130.286C187.351 130.818 188.098 131.117 188.877 131.118H530.615C531.394 131.117 532.141 130.818 532.692 130.286C533.242 129.754 533.552 129.033 533.553 128.281V31.5213C533.552 30.7692 533.242 30.0481 532.692 29.5162C532.141 28.9844 531.394 28.6852 530.615 28.6843L188.877 28.6843Z" fill="#E6E6E6"/>
<path d="M193.302 124.009H526.189V35.7937H193.302V124.009Z" fill="white"/>
<path d="M484.171 105.708C482.88 105.708 481.642 106.203 480.729 107.084C479.816 107.966 479.303 109.161 479.303 110.407C479.303 111.654 479.816 112.849 480.729 113.73C481.642 114.612 482.88 115.107 484.171 115.107H503.641C504.932 115.107 506.17 114.612 507.082 113.73C507.995 112.849 508.508 111.654 508.508 110.407C508.508 109.161 507.995 107.966 507.082 107.084C506.17 106.203 504.932 105.708 503.641 105.708H484.171Z" fill="#6C63FF"/>
<path d="M508.508 96.5928H283.753V97.8292H508.508V96.5928Z" fill="#E6E6E6"/>
<path d="M236.773 107.272C252.43 107.272 265.123 95.0176 265.123 79.901C265.123 64.7844 252.43 52.53 236.773 52.53C221.115 52.53 208.422 64.7844 208.422 79.901C208.422 95.0176 221.115 107.272 236.773 107.272Z" fill="#6C63FF"/>
<path d="M284.108 89.6882L283.398 88.6594L306.753 73.6272L322.769 81.0493L345.805 66.8402L346.116 66.9679L391.63 85.7125L428.122 68.4056L463.558 82.2753L508.084 44.2L508.933 45.1256L463.812 83.7091L428.172 69.7593L391.667 87.0721L345.925 68.2336L322.858 82.4619L306.857 75.0464L284.108 89.6882Z" fill="#3F3D56"/>
<path d="M287.915 106.354C286.813 106.356 285.755 106.78 284.976 107.533C284.196 108.287 283.759 109.308 283.759 110.373C283.759 111.438 284.196 112.459 284.976 113.212C285.755 113.966 286.813 114.39 287.915 114.391H331.458C332.562 114.391 333.62 113.968 334.401 113.214C335.181 112.461 335.62 111.439 335.62 110.373C335.62 109.307 335.181 108.285 334.401 107.531C333.62 106.778 332.562 106.354 331.458 106.354H287.915Z" fill="#E6E6E6"/>
<path d="M248.179 76.7064C248.709 73.2813 246.008 71.44 242.315 70.2116L243.513 65.5718L240.587 64.868L239.42 69.3855C238.652 69.2005 237.862 69.0259 237.077 68.853L238.252 64.3057L235.328 63.6018L234.129 68.24C233.493 68.1001 232.868 67.9617 232.261 67.8161L232.265 67.8016L228.23 66.8291L227.452 69.8456C227.452 69.8456 229.623 70.3259 229.577 70.3556C229.982 70.4024 230.351 70.6007 230.606 70.9079C230.861 71.2151 230.981 71.6066 230.94 71.9982L229.575 77.284C229.678 77.3089 229.78 77.3403 229.879 77.3781L229.571 77.3041L227.657 84.7087C227.615 84.8379 227.547 84.9579 227.457 85.0616C227.366 85.1654 227.256 85.2509 227.131 85.3132C227.007 85.3756 226.871 85.4135 226.731 85.4249C226.591 85.4363 226.45 85.4209 226.316 85.3796C226.346 85.4206 224.19 84.8672 224.19 84.8672L222.738 88.1009L226.546 89.0171C227.254 89.1885 227.948 89.3679 228.63 89.5368L227.42 94.2305L230.342 94.9344L231.541 90.2913C232.339 90.5005 233.114 90.6935 233.872 90.8753L232.677 95.4966L235.602 96.2005L236.813 91.5164C241.801 92.4278 245.553 92.0602 247.13 87.7051C248.403 84.1979 247.068 82.1748 244.443 80.8548C246.355 80.4276 247.794 79.2138 248.179 76.7064L248.179 76.7064ZM241.495 85.7553C240.59 89.2625 234.474 87.3673 232.49 86.8911L234.097 80.6738C236.08 81.1516 242.438 82.0976 241.496 85.7553H241.495ZM242.399 76.6558C241.574 79.8461 236.483 78.2252 234.831 77.8278L236.287 72.1889C237.939 72.5863 243.259 73.3279 242.399 76.6558Z" fill="white"/>
<path d="M323.324 183.649C322.545 183.65 321.798 183.949 321.247 184.481C320.696 185.013 320.386 185.734 320.385 186.486V283.246C320.386 283.998 320.696 284.719 321.247 285.251C321.798 285.783 322.545 286.082 323.324 286.083H665.062C665.841 286.082 666.587 285.783 667.138 285.251C667.689 284.719 667.999 283.998 668 283.246V186.486C667.999 185.734 667.689 185.013 667.138 184.481C666.587 183.949 665.841 183.65 665.062 183.649L323.324 183.649Z" fill="#E6E6E6"/>
<path d="M327.749 278.973H660.636V190.759H327.749V278.973Z" fill="white"/>
<path d="M618.618 260.673C617.327 260.673 616.089 261.168 615.176 262.049C614.263 262.931 613.75 264.126 613.75 265.372C613.75 266.619 614.263 267.814 615.176 268.695C616.089 269.576 617.327 270.071 618.618 270.071H638.087C639.378 270.071 640.616 269.576 641.529 268.695C642.442 267.814 642.955 266.619 642.955 265.372C642.955 264.126 642.442 262.931 641.529 262.049C640.616 261.168 639.378 260.673 638.087 260.673H618.618Z" fill="#6C63FF"/>
<path d="M642.955 251.558H418.2V252.794H642.955V251.558Z" fill="#E6E6E6"/>
<path d="M371.219 262.237C386.877 262.237 399.569 249.983 399.569 234.866C399.569 219.75 386.877 207.495 371.219 207.495C355.562 207.495 342.869 219.75 342.869 234.866C342.869 249.983 355.562 262.237 371.219 262.237Z" fill="#6C63FF"/>
<path d="M418.555 244.654L417.845 243.625L441.2 228.593L457.216 236.015L480.251 221.806L480.563 221.933L526.076 240.678L562.569 223.371L598.005 237.24L642.531 199.165L643.38 200.092L598.259 238.674L562.619 224.725L526.114 242.037L480.372 223.199L457.304 237.427L441.304 230.012L418.555 244.654Z" fill="#3F3D56"/>
<path d="M422.362 261.319C421.258 261.319 420.2 261.743 419.419 262.496C418.639 263.25 418.2 264.272 418.2 265.338C418.2 266.403 418.639 267.425 419.419 268.179C420.2 268.933 421.258 269.356 422.362 269.356H465.904C467.008 269.356 468.067 268.933 468.847 268.179C469.628 267.425 470.067 266.403 470.067 265.338C470.067 264.272 469.628 263.25 468.847 262.496C468.067 261.743 467.008 261.319 465.904 261.319H422.362Z" fill="#E6E6E6"/>
<path d="M371.216 252.905L382.693 237.301L371.216 243.843L359.746 237.301L371.215 252.905H371.216Z" fill="white"/>
<path d="M371.215 241.746H371.216L382.686 235.201L371.216 216.827H371.215L359.746 235.201L371.215 241.746Z" fill="white"/>
</g>
<defs>
<clipPath id="clip0_369_58">
<rect width="668" height="446" fill="white"/>
</clipPath>
</defs>
</svg>
