<svg width="124" height="120" viewBox="0 0 124 120" fill="none" xmlns="http://www.w3.org/2000/svg">
<ellipse cx="62" cy="60" rx="62" ry="60" fill="#A855F1"/>
<path d="M46.1875 50.0464C45.1517 49.0106 43.7939 48.4927 42.1143 48.4927C39.7347 48.4927 37.6351 49.1576 35.8154 50.4873C33.8838 51.873 32.918 53.5527 32.918 55.5264C32.918 57.0661 33.6388 58.5218 35.0806 59.8936C34.5487 60.6214 33.7158 61.2373 32.582 61.7412C32.2741 61.8812 31.9591 61.9512 31.6372 61.9512C31.3153 61.9512 30.9443 61.8532 30.5244 61.6572C30.1185 61.4613 29.7546 61.1813 29.4326 60.8174C28.7048 59.9915 28.3408 59.0047 28.3408 57.8569C28.3408 56.7091 28.5438 55.6453 28.9497 54.6655C29.3556 53.6857 29.9085 52.7759 30.6084 51.936C31.3083 51.0822 32.1201 50.3123 33.0439 49.6265C33.9818 48.9406 34.9756 48.3457 36.0254 47.8418C38.223 46.82 40.3646 46.3091 42.4502 46.3091C44.5498 46.3091 46.2995 46.687 47.6992 47.4429C50.9466 49.1925 52.5703 53.1398 52.5703 59.2847C52.5703 61.1463 52.4233 63.2179 52.1294 65.4995C54.509 62.798 59.1211 58.6338 65.9658 53.0068C66.9036 52.251 67.7785 51.5231 68.5903 50.8232C69.3462 48.9056 69.9691 47.6458 70.459 47.0439C71.2568 46.0501 71.9427 45.5532 72.5166 45.5532C73.0905 45.5532 73.4824 45.7002 73.6924 45.9941C73.9023 46.2741 74.0073 46.547 74.0073 46.813C74.0073 47.0649 73.9303 47.3309 73.7764 47.6108C73.6364 47.8908 73.4544 48.1917 73.2305 48.5137C72.7686 49.1576 72.2646 49.7804 71.7188 50.3823C70.333 57.8989 69.6401 65.4785 69.6401 73.1211C69.6401 75.8506 68.5133 77.7122 66.2598 78.7061C65.238 79.154 64.1322 79.3779 62.9424 79.3779C61.1507 79.3779 59.611 78.951 58.3232 78.0972C57.8193 77.7612 57.4274 77.3763 57.1475 76.9424C58.6732 75.6686 60.9058 71.3714 63.8452 64.0508C65.021 61.1113 66.1058 58.1159 67.0996 55.0645L62.9634 59.2007C57.7144 64.4497 53.9141 68.6769 51.5625 71.8823C51.3525 73.534 50.7646 75.2767 49.7988 77.1104C49.1969 78.2161 48.7 78.951 48.3081 79.3149C47.9302 79.6789 47.6432 79.8608 47.4473 79.8608C46.1315 79.8608 44.7388 79.4689 43.269 78.6851C41.7993 77.9012 41.0645 77.1663 41.0645 76.4805C41.0645 75.5566 41.9323 74.0939 43.668 72.0923C44.1439 71.5324 44.6268 71.0075 45.1167 70.5176C47.2723 65.8005 48.3501 61.3213 48.3501 57.0801C48.3501 56.5762 48.3081 55.8273 48.2241 54.8335C48.1541 53.8397 47.8602 52.7969 47.3423 51.7051C45.3826 58.1439 42.5762 64.1068 38.9229 69.5938C36.3473 73.443 33.7088 76.1655 31.0073 77.7612C29.6076 78.5871 28.2078 79 26.8081 79C25.4084 79 24.2676 78.783 23.3857 78.3491C21.5521 77.4393 20.6353 75.9066 20.6353 73.751C20.6353 72.3512 20.9922 71.0705 21.7061 69.9087C22.098 69.2788 22.5389 68.8169 23.0288 68.5229C24.9185 69.8667 26.8221 70.5386 28.7397 70.5386C31.5672 70.5386 34.3737 68.9919 37.1592 65.8984C39.6087 63.1689 42.0303 59.2007 44.4238 53.9937C45.0677 52.5939 45.6556 51.2782 46.1875 50.0464ZM79.0464 50.9492C78.2905 50.5433 78.0316 49.9484 78.2695 49.1646C78.4935 48.4227 79.1094 47.7718 80.1172 47.2119C81.265 46.582 82.5457 46.2671 83.9595 46.2671C85.3732 46.2671 86.64 46.624 87.7598 47.3379C88.8936 48.0518 89.8874 49.0596 90.7412 50.3613C92.5049 53.0068 93.6177 56.5272 94.0796 60.9224C94.8354 59.8166 95.5913 58.6968 96.3472 57.563C97.117 56.4292 97.8939 55.3234 98.6777 54.2456C99.4616 53.1678 100.252 52.139 101.05 51.1592C101.862 50.1794 102.681 49.2835 103.507 48.4717C105.312 46.722 107.062 45.5322 108.756 44.9023C108.826 44.8743 108.896 44.8604 108.966 44.8604C109.05 44.8604 109.148 44.8813 109.26 44.9233C109.372 44.9513 109.498 45.0213 109.638 45.1333C109.96 45.3853 110.163 45.6722 110.247 45.9941C107.055 48.1357 104.151 51.929 101.533 57.374C100.777 58.9417 100.049 60.5304 99.3496 62.1401C98.6497 63.7358 97.9499 65.3245 97.25 66.9062C96.5641 68.488 95.8503 69.9997 95.1084 71.4414C94.3805 72.8691 93.6037 74.1989 92.7778 75.4307C91.952 76.6484 91.0492 77.7122 90.0693 78.6221C87.9837 80.5397 85.6112 81.4985 82.9517 81.4985C80.0822 81.4985 77.7726 80.1618 76.0229 77.4883C75.0851 76.0605 74.4902 74.7868 74.2383 73.667C74.0003 72.5332 73.8813 71.8053 73.8813 71.4834C73.8813 71.1615 73.9373 70.9375 74.0493 70.8115C74.1753 70.6855 74.3223 70.5666 74.4902 70.4546C74.7842 70.2586 75.1411 70.1047 75.561 69.9927C75.939 70.7625 76.6458 71.4414 77.6816 72.0293C78.7874 72.6732 79.8932 72.9951 80.999 72.9951C82.9307 72.9951 84.9393 71.9943 87.0249 69.9927C88.3547 66.8993 89.0195 63.4839 89.0195 59.7466C89.0195 56.7791 88.5856 54.2806 87.7178 52.251C86.654 49.7874 85.2262 48.5557 83.4346 48.5557C81.6569 48.5557 80.1942 49.3535 79.0464 50.9492Z" fill="white"/>
</svg>
