<svg width="560" height="435" viewBox="0 0 560 435" fill="none" xmlns="http://www.w3.org/2000/svg">
<g clip-path="url(#clip0_369_218)">
<path d="M319.022 384.834C315.15 379.61 309.908 375.788 303.318 374.357C297.571 373.11 291.662 373.322 285.821 373.366L211.959 373.915C205.633 373.962 199.568 379.242 199.862 385.569C200.153 391.844 205.178 397.275 211.959 397.224C233.595 397.064 255.232 396.903 276.868 396.742C281.969 396.704 287.072 396.616 292.174 396.632C293.319 396.635 294.46 396.693 295.604 396.706C295.882 396.709 296.082 396.707 296.223 396.701C296.259 396.711 296.289 396.721 296.335 396.733C296.932 396.891 297.544 397 298.145 397.15C297.934 397.156 298.534 397.516 298.835 397.639C298.877 397.717 298.965 397.857 299.112 398.072C299.318 398.444 299.927 399.572 299.952 399.536C300.866 401.764 301.621 404.05 302.21 406.378C303.616 411.512 303.925 412.585 304.127 417.401C304.383 423.485 309.508 429.345 316.224 429.056C322.559 428.782 328.596 423.926 328.321 417.401C327.859 406.406 325.856 394.055 319.022 384.834Z" fill="#E6E6E6"/>
<path d="M216.301 411.135C214.913 403.035 213.552 394.93 212.138 386.835C210.703 378.622 207.772 371.102 201.139 365.712C199.367 364.272 197.529 362.928 195.683 361.587C195.034 361.116 194.386 360.644 193.745 360.163C193.707 360.134 193.682 360.116 193.649 360.091C193.579 360.032 193.494 359.963 193.38 359.87C190.616 357.616 187.944 355.261 185.4 352.758C183.14 350.536 180.979 348.218 178.917 345.806C178.401 345.203 177.892 344.595 177.39 343.982C177.304 343.876 176.839 343.297 176.532 342.919C176.247 342.541 175.727 341.858 175.639 341.739C175.052 340.939 174.476 340.133 173.911 339.319C170.058 333.757 166.721 327.879 163.94 321.752C163.665 321.145 163.395 320.534 163.133 319.919C163.062 319.731 162.971 319.49 162.85 319.17C162.289 317.685 161.73 316.202 161.218 314.699C160.129 311.508 159.193 308.27 158.41 304.985C158.022 303.363 157.674 301.732 157.364 300.094C157.204 299.251 157.054 298.406 156.915 297.56C156.892 297.42 156.757 296.507 156.676 295.991C156.617 295.473 156.507 294.555 156.493 294.413C156.404 293.56 156.325 292.706 156.257 291.852C156.102 289.928 155.997 288.002 155.943 286.073C155.85 282.644 155.914 279.215 156.134 275.786C156.26 273.86 156.438 271.938 156.658 270.02C156.672 269.902 156.682 269.809 156.692 269.724C156.705 269.639 156.72 269.541 156.739 269.42C156.902 268.36 157.073 267.302 157.265 266.247C157.99 262.241 158.934 258.274 160.092 254.364C160.64 252.514 161.235 250.68 161.878 248.86C162.165 248.052 162.46 247.248 162.765 246.446C162.745 246.498 163.659 244.249 163.671 244.174C167.296 235.922 173.226 228.398 173.234 219.024C173.239 212.677 167.666 206.597 161.137 206.89C157.882 207.008 154.801 208.339 152.544 210.603C150.288 212.866 149.031 215.885 149.04 219.024C149.04 219.166 149.039 219.288 149.039 219.406C148.978 219.604 148.927 219.768 148.881 219.914C148.174 221.394 147.308 222.801 146.532 224.244C144.407 228.195 142.593 232.275 140.87 236.415C138.05 243.157 135.891 250.139 134.422 257.269C131.228 272.891 130.98 288.939 133.69 304.646C138.38 332.19 153.848 358.556 175.351 376.279C177.218 377.817 179.129 379.304 181.059 380.76C181.857 381.362 182.663 381.954 183.472 382.541C183.854 382.819 185.439 384.023 184.742 383.44C186.241 384.672 186.872 385.292 187.257 386.2C187.312 386.41 187.388 386.694 187.491 387.082C187.763 388.106 188.02 389.127 188.235 390.165C190.106 399.235 191.407 408.457 192.971 417.586C194.045 423.858 202.06 427.941 207.852 426.061C214.593 423.872 217.452 417.855 216.301 411.135Z" fill="#E6E6E6"/>
<path d="M320.245 434.659C315.165 434.672 310.287 432.743 306.681 429.295C303.075 425.847 301.036 421.161 301.011 416.267V402.972C286.564 404.53 237.091 404.169 222.91 401.974V415.735C222.872 420.626 220.828 425.304 217.225 428.749C213.622 432.194 208.752 434.128 203.675 434.128C198.599 434.128 193.728 432.194 190.125 428.749C186.522 425.304 184.479 420.626 184.441 415.735V388.716C165.233 378.436 149.221 363.404 138.057 345.171C126.893 326.938 120.981 306.165 120.931 284.996C120.931 248.699 138.005 214.838 167.776 192.097C187.133 177.261 210.651 168.338 235.31 166.476C238.657 166.223 242.024 166.095 245.319 166.095C256.926 166.095 309.296 167.822 322.436 171.464L352.398 142.821C352.838 142.395 353.401 142.104 354.013 141.986C354.626 141.869 355.261 141.929 355.838 142.161C356.419 142.384 356.916 142.77 357.265 143.27C357.614 143.77 357.797 144.36 357.792 144.963V149.517L363.626 143.95C364.065 143.523 364.627 143.232 365.24 143.114C365.852 142.996 366.487 143.057 367.063 143.289C367.645 143.511 368.143 143.898 368.492 144.398C368.841 144.899 369.025 145.489 369.019 146.092V196.983C384.054 210.042 395.512 226.471 402.38 244.816C409.247 263.161 411.312 282.855 408.391 302.152C405.469 321.45 397.652 339.755 385.631 355.446C373.611 371.137 357.759 383.728 339.48 392.105V416.267C339.455 421.161 337.416 425.847 333.81 429.295C330.204 432.743 325.326 434.672 320.245 434.659ZM302.523 401.32V416.267C302.561 420.771 304.445 425.078 307.765 428.25C311.084 431.422 315.57 433.202 320.245 433.202C324.921 433.202 329.407 431.422 332.726 428.25C336.045 425.078 337.929 420.771 337.968 416.267V391.185L338.399 390.987C358.91 381.611 376.321 366.941 388.701 348.606C404.476 325.21 411.037 297.146 407.195 269.493C403.354 241.841 389.364 216.426 367.758 197.85L367.507 197.633V146.092C367.513 145.779 367.418 145.471 367.237 145.212C367.056 144.952 366.796 144.751 366.493 144.638C366.192 144.514 365.858 144.481 365.537 144.542C365.216 144.604 364.921 144.757 364.692 144.983L356.28 153.01V144.963C356.285 144.65 356.191 144.342 356.009 144.083C355.828 143.823 355.568 143.623 355.265 143.509C354.963 143.385 354.629 143.352 354.308 143.414C353.986 143.476 353.691 143.63 353.462 143.856L322.859 173.113L322.424 172.981C310.209 169.298 257.015 167.552 245.319 167.552C242.063 167.552 238.736 167.678 235.428 167.928C211.069 169.768 187.837 178.582 168.716 193.238C139.309 215.702 122.443 249.146 122.443 284.996C122.493 305.978 128.374 326.564 139.473 344.616C150.573 362.668 166.487 377.527 185.563 387.65L185.953 387.858V415.735C185.992 420.239 187.876 424.545 191.195 427.717C194.515 430.888 199 432.668 203.675 432.668C208.35 432.668 212.835 430.888 216.155 427.717C219.474 424.545 221.358 420.239 221.397 415.735V400.23L222.293 400.392C235.037 402.702 288.7 403.066 301.669 401.427L302.523 401.32Z" fill="#3F3D56"/>
<path d="M217.746 86.7688L134.019 111.011C131.356 111.785 129.12 113.546 127.804 115.907C126.488 118.268 126.198 121.036 126.999 123.602C127.799 126.169 129.624 128.324 132.073 129.595C134.522 130.866 137.395 131.148 140.06 130.38L213.33 109.161L214.865 108.716C215.176 101.096 217.321 93.6495 221.133 86.9654C220.654 86.7581 220.143 86.63 219.621 86.5866C218.989 86.5278 218.352 86.5897 217.746 86.7688Z" fill="#6C63FF"/>
<path d="M138.612 135.548C137.5 135.546 136.418 135.207 135.517 134.579C134.617 133.951 133.944 133.067 133.593 132.051L128.357 116.83C128.139 116.194 128.052 115.523 128.103 114.855C128.153 114.187 128.34 113.536 128.652 112.937C128.964 112.339 129.395 111.805 129.921 111.368C130.447 110.93 131.057 110.596 131.717 110.385L199.862 88.6272C200.522 88.4165 201.218 88.333 201.911 88.3816C202.604 88.4302 203.281 88.6098 203.902 88.9103C204.523 89.2107 205.077 89.6261 205.531 90.1327C205.986 90.6393 206.332 91.2272 206.551 91.8628L211.786 107.084C212.222 108.336 212.135 109.702 211.543 110.893C210.951 112.084 209.901 113.006 208.616 113.465C208.553 113.487 208.49 113.509 208.425 113.529L140.282 135.286C139.743 135.459 139.179 135.548 138.612 135.548Z" fill="#2F2E41"/>
<path d="M266.232 59.7367C252.478 59.7418 239.266 64.9029 229.393 74.1274C219.519 83.352 213.758 95.9161 213.33 109.161C213.315 109.678 213.307 110.202 213.307 110.727C213.307 120.812 216.411 130.67 222.227 139.055C228.042 147.441 236.308 153.976 245.979 157.835C255.649 161.695 266.291 162.705 276.557 160.737C286.824 158.77 296.254 153.913 303.655 146.782C311.057 139.651 316.098 130.566 318.14 120.674C320.182 110.783 319.134 100.531 315.128 91.2137C311.122 81.8965 304.339 73.9329 295.635 68.3301C286.932 62.7272 276.7 59.7367 266.232 59.7367ZM266.232 160.26C252.601 160.246 239.532 155.023 229.894 145.737C220.255 136.451 214.834 123.86 214.819 110.727C214.819 110.049 214.835 109.379 214.865 108.716C215.274 99.0135 218.635 89.6406 224.529 81.7633C230.423 73.8859 238.591 67.8515 248.016 64.4105C257.441 60.9694 267.708 60.2735 277.541 62.4093C287.373 64.5452 296.337 69.4184 303.318 76.4232C310.299 83.4279 314.988 92.2552 316.804 101.807C318.619 111.359 317.48 121.215 313.528 130.148C309.577 139.081 302.986 146.699 294.577 152.052C286.168 157.406 276.311 160.26 266.232 160.26Z" fill="#3F3D56"/>
<path d="M310.84 110.727C310.84 122.125 306.14 133.057 297.775 141.116C289.409 149.176 278.063 153.704 266.232 153.704C254.401 153.704 243.055 149.176 234.689 141.116C226.324 133.057 221.624 122.125 221.624 110.727C221.624 109.365 221.692 108.024 221.82 106.699C222.895 95.6981 228.327 85.519 236.986 78.275C245.646 71.031 256.869 67.2786 268.325 67.797C279.781 68.3154 290.589 73.0647 298.506 81.0588C306.423 89.0529 310.84 99.6776 310.84 110.727Z" fill="#E6E6E6"/>
<path d="M279.516 113.582C278.435 112.213 277.012 111.128 275.381 110.428C273.368 109.611 271.289 108.953 269.166 108.461V96.7628C272.43 97.237 275.492 98.5818 278.004 100.645L280.469 95.5827C279.051 94.3659 277.424 93.3971 275.66 92.72C273.705 91.9574 271.653 91.4502 269.559 91.2121V85.2827H263.851V91.2704C261.646 91.5089 259.52 92.1968 257.613 93.2882C255.89 94.2705 254.44 95.6401 253.386 97.2799C252.381 98.8803 251.86 100.72 251.882 102.59C251.784 104.617 252.393 106.618 253.613 108.272C254.736 109.704 256.219 110.837 257.923 111.564C259.968 112.406 262.082 113.081 264.244 113.582V124.793C260.391 124.513 256.721 123.102 253.727 120.75L251.262 125.82C252.936 127.153 254.84 128.194 256.887 128.894C259.13 129.667 261.474 130.138 263.851 130.292V136.171H269.559V130.183C272.729 129.849 275.703 128.536 278.034 126.439C279.061 125.49 279.872 124.347 280.416 123.08C280.96 121.814 281.225 120.452 281.195 119.082C281.289 117.119 280.698 115.183 279.516 113.582ZM264.244 107.223C262.853 106.817 261.56 106.148 260.44 105.256C259.997 104.876 259.646 104.406 259.413 103.879C259.181 103.353 259.072 102.783 259.095 102.211C259.054 100.914 259.548 99.6539 260.471 98.7077C261.493 97.715 262.813 97.0553 264.244 96.821V107.223ZM272.749 122.724C271.785 123.677 270.529 124.308 269.166 124.523V114.879C270.469 115.216 271.688 115.803 272.749 116.605C273.152 116.936 273.472 117.351 273.685 117.817C273.898 118.284 274 118.791 273.982 119.3C274.034 120.551 273.594 121.774 272.749 122.724Z" fill="#6C63FF"/>
<path d="M141.042 197.238C139.873 197.236 138.737 196.863 137.811 196.176C136.885 195.489 136.22 194.527 135.919 193.439L133.069 183.044C132.712 181.738 132.908 180.348 133.613 179.18C134.318 178.013 135.475 177.162 136.83 176.815L226.757 153.921C228.114 153.58 229.556 153.77 230.768 154.451C231.98 155.131 232.862 156.246 233.223 157.552L235.637 166.359L235.185 166.393C212.121 168.12 190.054 176.177 171.594 189.609L171.463 189.67L142.384 197.07C141.946 197.182 141.495 197.238 141.042 197.238Z" fill="#2F2E41"/>
<path d="M126.148 248.582C115.599 247.081 105.51 243.406 96.5691 237.807C92.1395 235.036 88.0388 231.805 84.3406 228.171C80.6904 224.584 77.1984 220.508 75.3904 215.73C73.6509 211.311 73.7405 206.416 75.6408 202.058C77.5152 197.727 81.0957 194.289 85.5973 192.497C90.1258 190.757 95.5972 190.571 100.004 192.477C102.105 193.364 103.922 194.773 105.27 196.56C105.897 197.384 106.361 198.312 106.639 199.298C106.897 200.191 106.92 201.132 106.707 202.036C106.449 202.939 105.993 203.778 105.37 204.497C104.748 205.216 103.973 205.798 103.098 206.205C101.171 207.157 99.084 207.77 96.9341 208.016C94.7716 208.3 91.6653 208.559 89.9268 206.886C89.569 206.555 89.2875 206.155 89.1008 205.713C88.9701 205.374 88.9254 205.01 88.9704 204.651C88.9451 204.809 89.0753 204.307 89.0679 204.327C89.0404 204.401 88.9213 204.582 89.0906 204.304C89.1434 204.212 89.2023 204.124 89.2668 204.039C89.2094 204.111 89.0832 204.23 89.3085 204.025C89.4947 203.829 89.7341 203.687 89.9998 203.614C90.1044 203.585 90.2106 203.562 90.3155 203.534C90.5823 203.464 90.0497 203.538 90.3225 203.529C90.4278 203.526 90.5344 203.529 90.6393 203.524C90.907 203.512 90.3753 203.454 90.6318 203.516C90.7314 203.54 90.8301 203.564 90.9282 203.593C91.1414 203.658 90.7771 203.443 90.9217 203.604C91.091 203.793 90.7438 203.42 90.9363 203.603C91.0321 203.694 91.1224 203.79 91.2068 203.89C91.5406 204.208 91.9908 204.386 92.4599 204.386C92.9291 204.386 93.3793 204.208 93.7131 203.89C94.0356 203.565 94.2155 203.133 94.2155 202.683C94.2155 202.233 94.0356 201.801 93.7131 201.476C91.9656 199.388 88.5136 199.904 86.7458 201.668C84.4912 203.918 85.384 207.483 87.5771 209.446C90.0598 211.668 93.576 211.823 96.7696 211.45C99.4685 211.201 102.099 210.485 104.534 209.336C106.953 208.191 108.846 206.221 109.844 203.809C110.295 202.521 110.457 201.156 110.32 199.804C110.182 198.452 109.748 197.143 109.046 195.965C106.226 190.857 100.388 188.239 94.6166 187.785C91.6455 187.561 88.6576 187.907 85.826 188.802C82.9944 189.698 80.3753 191.126 78.1202 193.003C73.7735 196.773 71.097 202.008 70.644 207.626C70.1403 213.451 72.4858 219.107 75.9056 223.808C79.4858 228.584 83.758 232.841 88.592 236.448C98.0424 243.718 109.128 248.754 120.961 251.156C122.368 251.436 123.783 251.676 125.206 251.875C125.659 251.981 126.136 251.917 126.541 251.695C126.946 251.473 127.248 251.111 127.386 250.683C127.507 250.246 127.446 249.781 127.214 249.388C126.982 248.995 126.599 248.706 126.148 248.582Z" fill="#3F3D56"/>
<path d="M295.042 174.373C279.587 174.163 264.18 174.54 248.822 175.506C243.572 175.837 239.03 177.624 239.03 180.629C239.03 183.141 243.536 186.084 248.822 185.751C264.172 184.785 279.579 184.407 295.042 184.617C307.649 184.789 307.641 174.544 295.042 174.373Z" fill="#CCCCCC"/>
<path d="M272.199 184.11C270.528 184.11 231.291 184.05 231.291 178.828C231.291 173.607 270.528 173.547 272.199 173.547C273.869 173.547 313.106 173.607 313.106 178.828C313.106 184.05 273.869 184.11 272.199 184.11ZM232.825 178.828C233.899 180.411 248.322 182.653 272.199 182.653C296.075 182.653 310.498 180.411 311.572 178.828C310.498 177.245 296.075 175.004 272.199 175.004C248.322 175.004 233.899 177.245 232.825 178.828Z" fill="#3F3D56"/>
<path d="M396.688 321.383C405.374 321.15 416.184 320.86 424.512 314.999C426.992 313.182 429.029 310.865 430.482 308.209C431.934 305.554 432.766 302.624 432.92 299.627C433.09 294.998 431.354 290.957 428.032 288.253C423.682 284.712 417.331 283.881 410.486 285.819L417.578 235.887L412.372 235.199L404.034 293.901L408.382 291.979C413.422 289.752 420.341 288.619 424.64 292.119C425.696 293.034 426.518 294.172 427.044 295.443C427.569 296.714 427.783 298.085 427.669 299.449C427.541 301.68 426.916 303.858 425.837 305.836C424.757 307.814 423.248 309.545 421.412 310.91C414.931 315.471 406.315 316.059 396.542 316.323L396.688 321.383Z" fill="#3F3D56"/>
<path d="M382.294 240.193H353.993V245.256H382.294V240.193Z" fill="#3F3D56"/>
<path d="M153.848 220.523C152.589 220.519 151.372 220.083 150.415 219.293C149.459 218.503 148.825 217.411 148.629 216.213L146.901 205.591C146.685 204.255 147.028 202.891 147.855 201.799C148.682 200.706 149.924 199.975 151.311 199.764L243.196 185.893C244.583 185.685 245.998 186.015 247.132 186.812C248.266 187.608 249.026 188.806 249.244 190.141L250.972 200.763C251.187 202.099 250.844 203.463 250.018 204.555C249.191 205.647 247.948 206.379 246.562 206.59L154.676 220.461C154.403 220.502 154.126 220.523 153.848 220.523Z" fill="#2F2E41"/>
<path d="M115.821 96.0469C137.117 96.0469 154.381 79.4143 154.381 58.897C154.381 38.3796 137.117 21.7471 115.821 21.7471C94.5256 21.7471 77.262 38.3796 77.262 58.897C77.262 79.4143 94.5256 96.0469 115.821 96.0469Z" fill="#6C63FF"/>
<path d="M137.653 68.5092C138.885 68.094 140.011 67.4293 140.955 66.5599C141.579 65.94 142.055 65.1962 142.349 64.3804C142.644 63.5647 142.75 62.6967 142.659 61.8375C142.607 61.225 142.408 60.6325 142.079 60.1063C141.749 59.5802 141.298 59.1345 140.76 58.8042C139.365 57.9774 137.521 58.0086 135.659 58.8401L135.444 44.3386L133.932 44.3594L134.185 61.4074L135.336 60.6801C136.67 59.8381 138.588 59.2275 139.968 60.0452C140.309 60.2617 140.594 60.551 140.8 60.8908C141.006 61.2306 141.129 61.6117 141.157 62.0043C141.221 62.6445 141.14 63.2903 140.922 63.8979C140.703 64.5055 140.351 65.0606 139.89 65.5253C138.251 67.0923 135.824 67.6173 133.055 68.0975L133.323 69.5311C134.795 69.3158 136.244 68.9738 137.653 68.5092Z" fill="#2F2E41"/>
<path d="M151.014 43.3208L142.962 44.4957L143.189 45.936L151.241 44.7611L151.014 43.3208Z" fill="#2F2E41"/>
<path d="M125.598 47.0285L117.546 48.2034L117.772 49.6436L125.824 48.4687L125.598 47.0285Z" fill="#2F2E41"/>
<path d="M141.303 219.874C139.916 219.871 138.563 219.461 137.424 218.699C136.285 217.937 135.414 216.859 134.926 215.609L108.341 147.013C105.091 138.6 105.438 129.289 109.305 121.123C113.173 112.956 120.244 106.601 128.969 103.451L150.586 95.6745C151.422 95.3718 152.312 95.2313 153.205 95.2611C154.097 95.291 154.975 95.4906 155.787 95.8485C156.597 96.1972 157.327 96.698 157.934 97.3216C158.54 97.9451 159.012 98.679 159.322 99.4803L208.569 189.065C208.889 189.873 209.04 190.734 209.013 191.598C208.986 192.462 208.782 193.313 208.412 194.101C208.043 194.889 207.516 195.598 206.86 196.189C206.205 196.78 205.435 197.24 204.595 197.543L143.681 219.457C142.921 219.732 142.115 219.873 141.303 219.874Z" fill="#2F2E41"/>
<path d="M144.028 98.0339L192.892 160.989L159.828 98.6946C159.554 97.9678 159.135 97.2999 158.594 96.7291C158.053 96.1583 157.401 95.6958 156.674 95.368C155.948 95.0402 155.161 94.8535 154.36 94.8186C153.558 94.7837 152.757 94.9013 152.003 95.1647L144.028 98.0339Z" fill="#E6E6E6"/>
<path d="M221.398 145.844L134.151 140.43C132.776 140.344 131.432 139.999 130.195 139.413C128.958 138.827 127.854 138.012 126.944 137.015C126.034 136.018 125.337 134.858 124.893 133.601C124.448 132.344 124.265 131.016 124.353 129.691C124.442 128.366 124.801 127.071 125.409 125.879C126.017 124.688 126.863 123.623 127.898 122.747C128.933 121.87 130.137 121.199 131.441 120.771C132.746 120.342 134.125 120.166 135.5 120.251L222.747 125.665C223.391 125.705 224.02 125.867 224.599 126.141C225.179 126.416 225.696 126.797 226.122 127.264C226.548 127.731 226.875 128.275 227.083 128.863C227.291 129.452 227.377 130.074 227.335 130.695L226.618 141.424C226.534 142.677 225.937 143.847 224.958 144.676C223.979 145.505 222.698 145.925 221.398 145.844Z" fill="#6C63FF"/>
<path d="M198.084 149.315C197.969 149.315 197.853 149.312 197.738 149.305L126.095 144.859C125.402 144.816 124.724 144.642 124.1 144.346C123.476 144.051 122.919 143.64 122.46 143.137C122.001 142.634 121.65 142.049 121.426 141.415C121.202 140.781 121.109 140.111 121.154 139.443L122.379 121.117C122.424 120.449 122.605 119.795 122.911 119.195C123.218 118.594 123.645 118.057 124.167 117.615C124.689 117.173 125.296 116.834 125.954 116.618C126.612 116.402 127.308 116.313 128.001 116.357L199.643 120.802C201.043 120.891 202.35 121.51 203.276 122.526C204.202 123.541 204.673 124.869 204.584 126.218L203.359 144.544C203.292 145.526 202.932 146.469 202.322 147.258C201.712 148.048 200.879 148.651 199.922 148.996C199.334 149.208 198.712 149.316 198.084 149.315Z" fill="#2F2E41"/>
<path d="M115.379 34.1928C120.452 29.9896 127.418 33.7497 133.235 33.0914C138.801 32.4617 143.195 27.6519 144.318 22.5421C145.628 16.5806 142.416 10.6081 137.682 6.89119C132.498 2.8203 125.621 1.65165 119.105 2.4048C111.637 3.26798 104.807 6.62193 98.6788 10.6787C92.7632 14.4732 87.3233 18.9144 82.4674 23.9137C78.1192 28.5404 74.4351 34.0554 73.2587 40.2813C72.1897 45.9394 73.006 52.2093 76.4777 57.0025C78.3186 59.4592 80.7857 61.4174 83.6408 62.6881C86.6178 64.0965 89.7933 65.1033 92.6774 66.6957C97.0383 69.1034 101.277 74.0957 99.9105 79.2909C99.6177 80.4258 99.0397 81.4739 98.2276 82.343C97.2517 83.3867 95.4916 82.0076 96.47 80.9611C98.1884 79.1233 98.1207 76.6722 97.2049 74.478C96.1159 72.0054 94.1876 69.9624 91.7359 68.6838C88.7169 67.0209 85.3839 65.9944 82.2896 64.4796C79.3279 63.0959 76.7571 61.0433 74.7959 58.4964C71.0925 53.538 69.9848 47.085 70.8247 41.1154C71.7336 34.6554 75.1786 28.7851 79.4973 23.8658C84.1971 18.5123 89.9702 13.9807 95.868 9.9096C102.196 5.54132 109.188 1.84824 116.924 0.512508C123.631 -0.64536 130.9 0.0674969 136.765 3.58862C142.239 6.87536 146.437 12.5292 146.854 18.8468C147.004 21.7213 146.356 24.5824 144.977 27.1355C143.598 29.6887 141.538 31.8418 139.009 33.3732C136.413 34.8695 133.396 35.543 130.382 35.2987C127.16 35.1 123.935 34.1494 120.692 34.4133C119.225 34.4991 117.827 35.0434 116.709 35.9637C115.601 36.8821 114.28 35.1036 115.379 34.1928Z" fill="#2F2E41"/>
<path d="M559.1 435H0.900197C0.661891 434.999 0.433587 434.908 0.265323 434.745C0.0970585 434.583 0.00256348 434.362 0.00256348 434.133C0.00256348 433.903 0.0970585 433.683 0.265323 433.52C0.433587 433.358 0.661891 433.266 0.900197 433.265H559.1C559.338 433.265 559.567 433.357 559.736 433.519C559.905 433.682 560 433.903 560 434.133C560 434.363 559.905 434.583 559.736 434.746C559.567 434.909 559.338 435 559.1 435Z" fill="#3F3D56"/>
</g>
<defs>
<clipPath id="clip0_369_218">
<rect width="560" height="435" fill="white"/>
</clipPath>
</defs>
</svg>
